File Name

Tekken 2010 816p BRRip H264.mp4

File Size
Format : MPEG-4
Format profile : Base Media
Codec ID : isom
File size : 3.98 GiB
Duration : 1h 31mn
Overall bit rate : 6 238 Kbps

Video
ID : 1
Format : AVC
Format/Info : Advanced Video Codec
Format profile : High@L4.1
Format settings, CABAC : Yes
Format settings, ReFrames : 3 frames
Codec ID : avc1
Codec ID/Info : Advanced Video Coding
Duration : 1h 31mn
Bit rate mode : Variable
Bit rate : 5 599 Kbps
Maximum bit rate : 24.9 Mbps
Width : 1 920 pixels
Height : 816 pixels
Display aspect ratio : 2.35:1
Frame rate mode : Constant
Frame rate : 23.976 fps
Resolution : 24 bits
Colorimetry : 4:2:0
Scan type : Progressive
Bits/(Pixel*Frame) : 0.149
Stream size : 3.57 GiB (90%)

Audio #1
ID : 2
Format : AAC
Format/Info : Advanced Audio Codec
Format version : Version 4
Format profile : LC
Format settings, SBR : No
Codec ID : 40
Duration : 1h 31mn
Bit rate mode : Variable
Bit rate : 192 Kbps
Maximum bit rate : 198 Kbps
Channel(s) : 2 channels
Channel positions : L R
Sampling rate : 48.0 KHz
Resolution : 16 bits
Stream size : 125 MiB (3%)

Audio #2
ID : 3
Format : AAC
Format/Info : Advanced Audio Codec
Format version : Version 4
Format profile : LC
Format settings, SBR : No
Codec ID : 40
Duration : 1h 31mn
Bit rate mode : Variable
Bit rate : 448 Kbps
Maximum bit rate : 462 Kbps
Channel(s) : 6 channels
Channel positions : Front: L C R, Rear: L R, LFE
Sampling rate : 48.0 KHz
Resolution : 16 bits
Stream size : 292 MiB (7%)

English SRT : ----

Language : English
 
http://www.imdb.com/title/tt0411951/

Release Date: 20 March 2010 (Japan)

Genre: Action | Adventure | Drama | Sci-Fi

Plot: About a young man who is driven to vengeance when his mother is executed.

Cast:
Jon Foo ... Jin Kazama
Kelly Overton ... Christie Monteiro
Cary-Hiroyuki Tagawa ... Heihachi Mishima
Cung Le ... Marshall Law (as Cung Lee)
Darrin Dewitt Henson ... Raven
Luke Goss ... Steve Fox
Mircea Monroe ... Kara
Tamlyn Tomita ... Jun Kazama
Candice Hillebrand ... Nina Williams (as Candicé Hillebrand)
Marian Zapico ... Anna Williams
Gary Daniels ... Bryan Fury
Lateef Crowder ... Eddy Gordo
Anton Kasabov ... Sergei Dragunov